<mxfile host="app.diagrams.net" modified="2021-12-29T10:56:25.713Z" agent="5.0 (Windows NT 10.0; Win64; x64) AppleWebKit/537.36 (KHTML, like Gecko) Chrome/96.0.4664.110 Safari/537.36" etag="SsljwaNzuabKpIkXHaC-" version="16.1.0" type="github">
  <diagram id="Jj3MoTFaDUZ4kII0MDo0" name="Page-1">
    <mxGraphModel dx="1038" dy="489" grid="1" gridSize="10" guides="1" tooltips="1" connect="1" arrows="1" fold="1" page="1" pageScale="1" pageWidth="850" pageHeight="1100" math="0" shadow="0">
      <root>
        <mxCell id="0" />
        <mxCell id="1" parent="0" />
        <mxCell id="22g_5rPfn3YIrpbxzKuh-4" value="" style="aspect=fixed;perimeter=ellipsePerimeter;html=1;align=center;shadow=0;dashed=0;fontColor=#4277BB;labelBackgroundColor=#ffffff;fontSize=12;spacingTop=3;image;image=img/lib/ibm/users/sensor.svg;" parent="1" vertex="1">
          <mxGeometry x="20" y="70" width="60" height="60" as="geometry" />
        </mxCell>
        <mxCell id="22g_5rPfn3YIrpbxzKuh-5" value="" style="verticalLabelPosition=bottom;sketch=0;aspect=fixed;html=1;verticalAlign=top;strokeColor=none;align=center;outlineConnect=0;shape=mxgraph.citrix.tablet_2;" parent="1" vertex="1">
          <mxGeometry x="290" y="77.5" width="57.21" height="60" as="geometry" />
        </mxCell>
        <mxCell id="22g_5rPfn3YIrpbxzKuh-7" value="" style="points=[];aspect=fixed;html=1;align=center;shadow=0;dashed=0;image;image=img/lib/allied_telesis/computer_and_terminals/Server_Desktop.svg;" parent="1" vertex="1">
          <mxGeometry x="640" y="260" width="40" height="50.7" as="geometry" />
        </mxCell>
        <mxCell id="22g_5rPfn3YIrpbxzKuh-10" value="" style="shape=image;html=1;verticalAlign=top;verticalLabelPosition=bottom;labelBackgroundColor=#ffffff;imageAspect=0;aspect=fixed;image=https://cdn1.iconfinder.com/data/icons/competitive-strategy-and-corporate-training/512/600_Admin_command_root_software_terminal_game_gaming_genres_programing-128.png" parent="1" vertex="1">
          <mxGeometry x="590" y="60" width="90" height="90" as="geometry" />
        </mxCell>
        <mxCell id="22g_5rPfn3YIrpbxzKuh-11" value="Command Terminal" style="text;html=1;strokeColor=none;fillColor=none;align=center;verticalAlign=middle;whiteSpace=wrap;rounded=0;" parent="1" vertex="1">
          <mxGeometry x="580" y="30" width="120" height="30" as="geometry" />
        </mxCell>
        <mxCell id="22g_5rPfn3YIrpbxzKuh-12" value="" style="group" parent="1" vertex="1" connectable="0">
          <mxGeometry x="160" y="80" width="30" height="50" as="geometry" />
        </mxCell>
        <mxCell id="22g_5rPfn3YIrpbxzKuh-3" value="" style="html=1;verticalLabelPosition=bottom;align=center;labelBackgroundColor=#ffffff;verticalAlign=top;strokeWidth=2;strokeColor=#0080F0;shadow=0;dashed=0;shape=mxgraph.ios7.icons.smartphone;" parent="22g_5rPfn3YIrpbxzKuh-12" vertex="1">
          <mxGeometry width="30" height="50" as="geometry" />
        </mxCell>
        <mxCell id="22g_5rPfn3YIrpbxzKuh-6" value="" style="aspect=fixed;perimeter=ellipsePerimeter;html=1;align=center;shadow=0;dashed=0;fontColor=#4277BB;labelBackgroundColor=#ffffff;fontSize=12;spacingTop=3;image;image=img/lib/ibm/applications/mobile_app.svg;" parent="22g_5rPfn3YIrpbxzKuh-12" vertex="1">
          <mxGeometry x="7.5" y="12.5" width="15" height="15" as="geometry" />
        </mxCell>
        <mxCell id="22g_5rPfn3YIrpbxzKuh-13" value="" style="image;html=1;image=img/lib/clip_art/computers/Laptop_128x128.png" parent="1" vertex="1">
          <mxGeometry x="440" y="75" width="65" height="65" as="geometry" />
        </mxCell>
        <mxCell id="22g_5rPfn3YIrpbxzKuh-14" value="Sensor" style="text;html=1;strokeColor=none;fillColor=none;align=center;verticalAlign=middle;whiteSpace=wrap;rounded=0;" parent="1" vertex="1">
          <mxGeometry x="20" y="40" width="60" height="30" as="geometry" />
        </mxCell>
        <mxCell id="22g_5rPfn3YIrpbxzKuh-15" value="Mobile" style="text;html=1;strokeColor=none;fillColor=none;align=center;verticalAlign=middle;whiteSpace=wrap;rounded=0;" parent="1" vertex="1">
          <mxGeometry x="145" y="40" width="60" height="30" as="geometry" />
        </mxCell>
        <mxCell id="22g_5rPfn3YIrpbxzKuh-16" value="Tablet" style="text;html=1;strokeColor=none;fillColor=none;align=center;verticalAlign=middle;whiteSpace=wrap;rounded=0;" parent="1" vertex="1">
          <mxGeometry x="280" y="40" width="60" height="30" as="geometry" />
        </mxCell>
        <mxCell id="22g_5rPfn3YIrpbxzKuh-17" value="Desktop / Laptop" style="text;html=1;strokeColor=none;fillColor=none;align=center;verticalAlign=middle;whiteSpace=wrap;rounded=0;" parent="1" vertex="1">
          <mxGeometry x="430" y="40" width="60" height="30" as="geometry" />
        </mxCell>
        <mxCell id="22g_5rPfn3YIrpbxzKuh-20" value="Application Load Balancer" style="sketch=0;outlineConnect=0;fontColor=#232F3E;gradientColor=none;strokeColor=#ffffff;fillColor=#232F3E;dashed=0;verticalLabelPosition=middle;verticalAlign=bottom;align=center;html=1;whiteSpace=wrap;fontSize=10;fontStyle=1;spacing=3;shape=mxgraph.aws4.productIcon;prIcon=mxgraph.aws4.application_load_balancer;" parent="1" vertex="1">
          <mxGeometry x="410" y="315" width="60" height="100" as="geometry" />
        </mxCell>
        <mxCell id="22g_5rPfn3YIrpbxzKuh-21" value="Network Load Balancer" style="sketch=0;outlineConnect=0;fontColor=#232F3E;gradientColor=none;strokeColor=#ffffff;fillColor=#232F3E;dashed=0;verticalLabelPosition=middle;verticalAlign=bottom;align=center;html=1;whiteSpace=wrap;fontSize=10;fontStyle=1;spacing=3;shape=mxgraph.aws4.productIcon;prIcon=mxgraph.aws4.network_load_balancer;" parent="1" vertex="1">
          <mxGeometry x="330" y="320" width="50" height="90" as="geometry" />
        </mxCell>
        <mxCell id="22g_5rPfn3YIrpbxzKuh-29" style="edgeStyle=orthogonalEdgeStyle;rounded=0;orthogonalLoop=1;jettySize=auto;html=1;entryX=0.01;entryY=0.604;entryDx=0;entryDy=0;entryPerimeter=0;" parent="1" source="22g_5rPfn3YIrpbxzKuh-24" target="22g_5rPfn3YIrpbxzKuh-7" edge="1">
          <mxGeometry relative="1" as="geometry" />
        </mxCell>
        <mxCell id="22g_5rPfn3YIrpbxzKuh-30" style="edgeStyle=orthogonalEdgeStyle;rounded=0;orthogonalLoop=1;jettySize=auto;html=1;entryX=0.03;entryY=0.689;entryDx=0;entryDy=0;entryPerimeter=0;" parent="1" source="22g_5rPfn3YIrpbxzKuh-24" target="22g_5rPfn3YIrpbxzKuh-27" edge="1">
          <mxGeometry relative="1" as="geometry" />
        </mxCell>
        <mxCell id="22g_5rPfn3YIrpbxzKuh-31" style="edgeStyle=orthogonalEdgeStyle;rounded=0;orthogonalLoop=1;jettySize=auto;html=1;entryX=0;entryY=0.69;entryDx=0;entryDy=0;entryPerimeter=0;" parent="1" source="22g_5rPfn3YIrpbxzKuh-24" target="22g_5rPfn3YIrpbxzKuh-28" edge="1">
          <mxGeometry relative="1" as="geometry" />
        </mxCell>
        <mxCell id="22g_5rPfn3YIrpbxzKuh-24" value="" style="sketch=0;points=[[0,0,0],[0.25,0,0],[0.5,0,0],[0.75,0,0],[1,0,0],[0,1,0],[0.25,1,0],[0.5,1,0],[0.75,1,0],[1,1,0],[0,0.25,0],[0,0.5,0],[0,0.75,0],[1,0.25,0],[1,0.5,0],[1,0.75,0]];outlineConnect=0;fontColor=#232F3E;gradientColor=#945DF2;gradientDirection=north;fillColor=#5A30B5;strokeColor=#ffffff;dashed=0;verticalLabelPosition=bottom;verticalAlign=top;align=center;html=1;fontSize=12;fontStyle=0;aspect=fixed;shape=mxgraph.aws4.resourceIcon;resIcon=mxgraph.aws4.api_gateway;" parent="1" vertex="1">
          <mxGeometry x="505" y="315" width="61" height="61" as="geometry" />
        </mxCell>
        <mxCell id="22g_5rPfn3YIrpbxzKuh-26" value="Api Geteway" style="text;html=1;strokeColor=none;fillColor=none;align=center;verticalAlign=middle;whiteSpace=wrap;rounded=0;" parent="1" vertex="1">
          <mxGeometry x="500" y="376" width="60" height="30" as="geometry" />
        </mxCell>
        <mxCell id="22g_5rPfn3YIrpbxzKuh-27" value="" style="points=[];aspect=fixed;html=1;align=center;shadow=0;dashed=0;image;image=img/lib/allied_telesis/computer_and_terminals/Server_Desktop.svg;" parent="1" vertex="1">
          <mxGeometry x="640" y="339.65" width="40" height="50.7" as="geometry" />
        </mxCell>
        <mxCell id="22g_5rPfn3YIrpbxzKuh-28" value="" style="points=[];aspect=fixed;html=1;align=center;shadow=0;dashed=0;image;image=img/lib/allied_telesis/computer_and_terminals/Server_Desktop.svg;" parent="1" vertex="1">
          <mxGeometry x="640" y="415" width="40" height="50.7" as="geometry" />
        </mxCell>
        <mxCell id="22g_5rPfn3YIrpbxzKuh-33" value="" style="curved=1;endArrow=classic;html=1;rounded=0;exitX=0.5;exitY=1;exitDx=0;exitDy=0;" parent="1" source="22g_5rPfn3YIrpbxzKuh-10" target="22g_5rPfn3YIrpbxzKuh-18" edge="1">
          <mxGeometry width="50" height="50" relative="1" as="geometry">
            <mxPoint x="400" y="260" as="sourcePoint" />
            <mxPoint x="420" y="230" as="targetPoint" />
            <Array as="points">
              <mxPoint x="600" y="200" />
              <mxPoint x="540" y="240" />
            </Array>
          </mxGeometry>
        </mxCell>
        <mxCell id="22g_5rPfn3YIrpbxzKuh-34" value="" style="curved=1;endArrow=classic;html=1;rounded=0;exitX=0.75;exitY=1;exitDx=0;exitDy=0;" parent="1" source="22g_5rPfn3YIrpbxzKuh-13" target="22g_5rPfn3YIrpbxzKuh-18" edge="1">
          <mxGeometry width="50" height="50" relative="1" as="geometry">
            <mxPoint x="645" y="160" as="sourcePoint" />
            <mxPoint x="422.55999999999995" y="262.95819127938273" as="targetPoint" />
            <Array as="points">
              <mxPoint x="510" y="200" />
            </Array>
          </mxGeometry>
        </mxCell>
        <mxCell id="22g_5rPfn3YIrpbxzKuh-35" value="" style="curved=1;endArrow=classic;html=1;rounded=0;exitX=0.25;exitY=1;exitDx=0;exitDy=0;" parent="1" source="22g_5rPfn3YIrpbxzKuh-4" target="22g_5rPfn3YIrpbxzKuh-18" edge="1">
          <mxGeometry width="50" height="50" relative="1" as="geometry">
            <mxPoint x="358.75" y="150" as="sourcePoint" />
            <mxPoint x="282.55999999999995" y="250.4845834244478" as="targetPoint" />
            <Array as="points">
              <mxPoint x="100" y="220" />
              <mxPoint x="180" y="250" />
              <mxPoint x="250" y="257" />
            </Array>
          </mxGeometry>
        </mxCell>
        <mxCell id="22g_5rPfn3YIrpbxzKuh-36" value="" style="curved=1;endArrow=classic;html=1;rounded=0;exitX=0.25;exitY=1;exitDx=0;exitDy=0;" parent="1" edge="1">
          <mxGeometry width="50" height="50" relative="1" as="geometry">
            <mxPoint x="170.36359213500126" y="129.8328157299975" as="sourcePoint" />
            <mxPoint x="340" y="250" as="targetPoint" />
            <Array as="points">
              <mxPoint x="270" y="160" />
              <mxPoint x="160" y="180" />
            </Array>
          </mxGeometry>
        </mxCell>
        <mxCell id="22g_5rPfn3YIrpbxzKuh-37" value="" style="curved=1;endArrow=classic;html=1;rounded=0;" parent="1" target="22g_5rPfn3YIrpbxzKuh-18" edge="1">
          <mxGeometry width="50" height="50" relative="1" as="geometry">
            <mxPoint x="330" y="140" as="sourcePoint" />
            <mxPoint x="350" y="260" as="targetPoint" />
            <Array as="points">
              <mxPoint x="280" y="170" />
              <mxPoint x="330" y="190" />
            </Array>
          </mxGeometry>
        </mxCell>
        <mxCell id="22g_5rPfn3YIrpbxzKuh-38" value="Servers" style="text;html=1;strokeColor=none;fillColor=none;align=center;verticalAlign=middle;whiteSpace=wrap;rounded=0;" parent="1" vertex="1">
          <mxGeometry x="630" y="230" width="60" height="30" as="geometry" />
        </mxCell>
        <mxCell id="22g_5rPfn3YIrpbxzKuh-39" value="Private Cloud" style="text;html=1;strokeColor=none;fillColor=none;align=center;verticalAlign=middle;whiteSpace=wrap;rounded=0;" parent="1" vertex="1">
          <mxGeometry x="410" y="260" width="70" height="30" as="geometry" />
        </mxCell>
        <mxCell id="22g_5rPfn3YIrpbxzKuh-41" value="" style="group" parent="1" vertex="1" connectable="0">
          <mxGeometry x="333.05999999999995" y="210" width="79.5" height="74" as="geometry" />
        </mxCell>
        <mxCell id="22g_5rPfn3YIrpbxzKuh-18" value="" style="outlineConnect=0;dashed=0;verticalLabelPosition=bottom;verticalAlign=top;align=center;html=1;shape=mxgraph.aws3.virtual_private_cloud;fillColor=#F58534;gradientColor=none;" parent="22g_5rPfn3YIrpbxzKuh-41" vertex="1">
          <mxGeometry y="20" width="79.5" height="54" as="geometry" />
        </mxCell>
        <mxCell id="22g_5rPfn3YIrpbxzKuh-40" value="" style="image;html=1;image=img/lib/clip_art/computers/Network_128x128.png" parent="22g_5rPfn3YIrpbxzKuh-41" vertex="1">
          <mxGeometry x="36.940000000000055" width="40" height="50" as="geometry" />
        </mxCell>
        <mxCell id="BArX0MKEoqv8ygSVBQDY-1" value="" style="endArrow=classic;startArrow=classic;html=1;rounded=0;" edge="1" parent="1" source="22g_5rPfn3YIrpbxzKuh-21" target="22g_5rPfn3YIrpbxzKuh-18">
          <mxGeometry width="50" height="50" relative="1" as="geometry">
            <mxPoint x="400" y="280" as="sourcePoint" />
            <mxPoint x="450" y="230" as="targetPoint" />
          </mxGeometry>
        </mxCell>
        <mxCell id="BArX0MKEoqv8ygSVBQDY-2" value="" style="endArrow=classic;startArrow=classic;html=1;rounded=0;" edge="1" parent="1" source="22g_5rPfn3YIrpbxzKuh-21" target="22g_5rPfn3YIrpbxzKuh-20">
          <mxGeometry width="50" height="50" relative="1" as="geometry">
            <mxPoint x="372.42083333333335" y="330" as="sourcePoint" />
            <mxPoint x="410" y="300" as="targetPoint" />
          </mxGeometry>
        </mxCell>
        <mxCell id="BArX0MKEoqv8ygSVBQDY-3" value="" style="endArrow=classic;startArrow=classic;html=1;rounded=0;entryX=0;entryY=0.75;entryDx=0;entryDy=0;entryPerimeter=0;" edge="1" parent="1" source="22g_5rPfn3YIrpbxzKuh-20" target="22g_5rPfn3YIrpbxzKuh-24">
          <mxGeometry width="50" height="50" relative="1" as="geometry">
            <mxPoint x="469" y="365" as="sourcePoint" />
            <mxPoint x="499" y="365" as="targetPoint" />
          </mxGeometry>
        </mxCell>
      </root>
    </mxGraphModel>
  </diagram>
</mxfile>
